<svg width="214" height="75" viewBox="0 0 214 75" fill="none" xmlns="http://www.w3.org/2000/svg">
<path d="M212.5 37.5C212.5 42.0531 209.871 46.6029 204.634 50.9417C199.407 55.2727 191.754 59.2401 182.164 62.6009C162.999 69.3178 136.424 73.5 107 73.5C77.5756 73.5 51.0011 69.3178 31.8357 62.6009C22.2461 59.2401 14.5925 55.2727 9.36563 50.9417C4.12938 46.6029 1.5 42.0531 1.5 37.5C1.5 32.9469 4.12938 28.3971 9.36563 24.0583C14.5925 19.7273 22.2461 15.7599 31.8357 12.3991C51.0011 5.68223 77.5756 1.5 107 1.5C136.424 1.5 162.999 5.68223 182.164 12.3991C191.754 15.7599 199.407 19.7273 204.634 24.0583C209.871 28.3971 212.5 32.9469 212.5 37.5Z" stroke="#3FDEAE" stroke-width="3"/>
</svg>
